<svg xmlns="http://www.w3.org/2000/svg" viewBox="0 0 240 240" fill="none">
  <title>A-STAR stacked logo</title>
  <g transform="translate(80 14)">
    <polygon points="40,5 70,22 70,58 40,75 10,58 10,22" stroke="#061632" stroke-width="2.75" stroke-linejoin="round"/>
    <path d="M25 56 40 22 55 56" stroke="#061632" stroke-width="5" stroke-linecap="round" stroke-linejoin="round"/>
    <path d="M31.5 43.5h17" stroke="#1e88e5" stroke-width="4" stroke-linecap="round"/>
    <circle cx="40" cy="5" r="2.7" fill="#1e88e5"/>
    <circle cx="70" cy="22" r="2.7" fill="#1e88e5"/>
    <circle cx="70" cy="58" r="2.7" fill="#1e88e5"/>
    <circle cx="40" cy="75" r="2.7" fill="#1e88e5"/>
    <circle cx="10" cy="58" r="2.7" fill="#1e88e5"/>
    <circle cx="10" cy="22" r="2.7" fill="#1e88e5"/>
    <path d="M58 24l1.8 4.1 4.2 1.7-4.2 1.7L58 35.6l-1.8-4.1-4.2-1.7 4.2-1.7L58 24z" fill="#1e88e5"/>
  </g>
  <text x="120" y="130" text-anchor="middle" font-family="Inter, Segoe UI, Arial, sans-serif" font-size="34" font-weight="800" fill="#061632" letter-spacing="0.02em">A-STAR</text>
  <text x="120" y="155" text-anchor="middle" font-family="Inter, Segoe UI, Arial, sans-serif" font-size="10" font-weight="600" fill="#475569" letter-spacing="0.08em">AI IN SURGICAL TECHNOLOGY</text>
  <text x="120" y="171" text-anchor="middle" font-family="Inter, Segoe UI, Arial, sans-serif" font-size="10" font-weight="600" fill="#475569" letter-spacing="0.08em">&amp; AUGMENTATION RESEARCH</text>
</svg>
